<svg id="icons" xmlns="http://www.w3.org/2000/svg" xmlns:xlink="http://www.w3.org/1999/xlink" viewBox="0 0 128 128"><defs><style>.cls-1{opacity:0.24;}.cls-2{fill:#fff;}.cls-3{fill:#3f6498;}.cls-4{fill:url(#linear-gradient);}.cls-5{fill:#62f686;}.cls-6{fill:#1bceeb;}.cls-7{fill:#fbc64f;}.cls-8{fill:#fb51dc;}</style><linearGradient id="linear-gradient" x1="24.57" y1="28.6" x2="91.4" y2="95.43" gradientUnits="userSpaceOnUse"><stop offset="0" stop-color="#fdea61"/><stop offset="0.25" stop-color="#fd7c67"/><stop offset="0.5" stop-color="#fa48fb"/><stop offset="0.75" stop-color="#0dd9ea"/><stop offset="1" stop-color="#73fc73"/></linearGradient></defs><title>sundae</title><g class="cls-1"><path class="cls-2" d="M52,115a7,7,0,0,1,0-14h5V92.22a18.24,18.24,0,0,1-7.13-7.07C36.18,79.28,27,64.79,27,49a7,7,0,0,1,6.22-7,20.08,20.08,0,0,1,3.3-8.34l-6.4-9.9A7,7,0,1,1,41.88,16.2L48,25.64a20,20,0,0,1,3.48-.58,19,19,0,0,1,34.09,7,20,20,0,0,1,8.16,10H94a7,7,0,0,1,7,7c0,15.79-9.18,30.28-22.87,36.15A18.24,18.24,0,0,1,71,92.22V101h5a7,7,0,0,1,0,14Z"/><path class="cls-3" d="M36,14a6,6,0,0,1,5,2.74L47.55,26.8A19,19,0,0,1,52,26a18,18,0,0,1,32.65,6.63A19.06,19.06,0,0,1,93,43h1a6,6,0,0,1,6,6c0,15.49-9.21,29.79-22.58,35.37A17,17,0,0,1,70,91.61V102h6a6,6,0,0,1,0,12H52a6,6,0,0,1,0-12h6V91.61a17,17,0,0,1-7.42-7.24C37.21,78.79,28,64.49,28,49a6,6,0,0,1,6-6h.11a19.09,19.09,0,0,1,3.63-9.27L31,23.26A6,6,0,0,1,36,14m0-2a8,8,0,0,0-6.71,12.35l6,9.35a21.09,21.09,0,0,0-3,7.48A8,8,0,0,0,26,49c0,16.07,9.28,30.82,23.17,36.94A19.33,19.33,0,0,0,56,92.81V100H52a8,8,0,0,0,0,16H76a8,8,0,0,0,0-16H72V92.81a19.33,19.33,0,0,0,6.83-6.87C92.72,79.82,102,65.07,102,49a8,8,0,0,0-7.59-8,21,21,0,0,0-8-9.61,20,20,0,0,0-35.52-7.3,21,21,0,0,0-2.48.4l-5.73-8.85A8,8,0,0,0,36,12Z"/></g><path class="cls-4" d="M74.52,81.2C87.22,76.65,96,63.56,96,49a2,2,0,0,0-2-2H89.86A14.89,14.89,0,0,0,81,35.24a14,14,0,0,0-26.63-5.18C53.89,30,53.44,30,53,30a14.9,14.9,0,0,0-7,1.75L37.68,18.91a2,2,0,1,0-3.36,2.17l8.42,13A14.82,14.82,0,0,0,38.14,47H34a2,2,0,0,0-2,2c0,14.56,8.78,27.65,21.48,32.2,1.76,4,4.93,6.81,8.52,7.58V106H52a2,2,0,0,0,0,4H76a2,2,0,0,0,0-4H66V88.78C69.59,88,72.76,85.23,74.52,81.2ZM67.46,41A11,11,0,0,1,75,38c.33,0,.66,0,1,0a13,13,0,0,1,5.86,9h-14A15.16,15.16,0,0,0,68,45,15,15,0,0,0,67.46,41ZM67,26c.22,0,.44,0,.66,0a12,12,0,0,1,5.2,8.14,14.93,14.93,0,0,0-7.06,3A15.16,15.16,0,0,0,58.35,31,10,10,0,0,1,67,26ZM42,45A11,11,0,0,1,53,34a11,11,0,0,1,10.31,7.17A11,11,0,0,1,64,45a11.32,11.32,0,0,1-.2,2H42.19A11,11,0,0,1,42,45ZM56.86,78.91A2,2,0,0,0,55.6,77.7c-11-3.53-18.77-14.34-19.54-26.7H87.93C87.18,63.86,79.26,75.66,67,79.6a12.55,12.55,0,0,1-3.64,5.33C60.64,84.62,58.13,82.35,56.86,78.91Z"/><circle class="cls-5" cx="98" cy="14" r="5"/><circle class="cls-6" cx="14" cy="37" r="3"/><circle class="cls-7" cx="109" cy="90" r="6"/><circle class="cls-8" cx="32" cy="97" r="4"/><circle class="cls-5" cx="20" cy="80" r="2"/></svg>